<?xml version="1.0" encoding="UTF-8" standalone="no"?>
<svg
   width="24.563999"
   height="37.708"
   viewBox="0 0 24.563999 37.708"
   fill="none"
   version="1.1"
   id="svg118"
   sodipodi:docname="favicon.svg"
   inkscape:version="1.2.1 (9c6d41e410, 2022-07-14)"
   xmlns:inkscape="http://www.inkscape.org/namespaces/inkscape"
   xmlns:sodipodi="http://sodipodi.sourceforge.net/DTD/sodipodi-0.dtd"
   xmlns="http://www.w3.org/2000/svg"
   xmlns:svg="http://www.w3.org/2000/svg">
  <defs
     id="defs122" />
  <sodipodi:namedview
     id="namedview120"
     pagecolor="#505050"
     bordercolor="#eeeeee"
     borderopacity="1"
     inkscape:showpageshadow="0"
     inkscape:pageopacity="0"
     inkscape:pagecheckerboard="0"
     inkscape:deskcolor="#505050"
     showgrid="false"
     inkscape:zoom="17.423529"
     inkscape:cx="42.528697"
     inkscape:cy="19.972991"
     inkscape:window-width="1920"
     inkscape:window-height="1011"
     inkscape:window-x="0"
     inkscape:window-y="0"
     inkscape:window-maximized="1"
     inkscape:current-layer="svg118" />
  <path
     d="M 24.2175,4.10239 C 23.8932,3.60575 23.4194,3.59149 22.8795,3.57523 22.8183,3.57339 22.7563,3.57153 22.6936,3.56893 22.6458,3.56673 22.5931,3.56758 22.538,3.56846 22.319,3.57198 22.0629,3.57609 21.9339,3.39212 21.7843,3.17883 21.7985,2.76663 21.8102,2.42635 21.8139,2.31882 21.8173,2.21841 21.8153,2.1338 21.7943,1.34332 21.7504,0.503628 21.4453,0.22292 21.2152,0.0123098 20.5268,0.041487 19.892,0.0683954 19.6862,0.0771184 19.486,0.085603 19.3089,0.085603 H 5.79596 C 5.52389,0.085603 5.23869,0.0634489 4.95847,0.0416813 4.41245,-7.33804e-4 3.88533,-0.0416812 3.511,0.085603 2.96775,0.271231 2.93096,1.24667 2.89633,2.16519 L 2.89446,2.21461 C 2.86538,2.97288 2.67746,3.55799 2.05465,3.49906 1.33029,3.43161 0.609497,3.41035 0.281987,4.06594 -0.10481,4.84161 -0.0250374,5.65358 0.117847,7.10792 0.138258,7.31567 0.159956,7.53652 0.181766,7.77225 H 24.4264 C 24.4403,7.59995 24.455,7.42986 24.4696,7.26253 24.5831,5.95406 24.682,4.81402 24.2175,4.10239 Z"
     fill="#8047f8"
     id="path86" />
  <path
     fill-rule="evenodd"
     clip-rule="evenodd"
     d="M 2.06987,9.21467 C 2.44852,14.3395 2.82304,19.4701 3.19757,24.6009 l 2.3e-4,0.0031 c 0.20335,2.7858 0.40671,5.5717 0.61073,8.3566 h 0.77359 c 0.05271,0.4359 0.11303,0.9741 0.17662,1.5415 0.12909,1.1518 0.2717,2.4243 0.3916,3.2062 H 5.2359 c 0.78797,-0.2883 6.2353,-2.6167 6.2377,-11.8865 -10e-4,-0.0264 -10e-5,-0.0529 0.0026,-0.0791 H 10.1304 C 10.0653,25.7421 10.0021,25.7203 9.9507,25.6808 9.89927,25.6413 9.86241,25.5861 9.84577,25.5238 9.71463,25.1999 9.60888,24.8664 9.52948,24.5264 c -0.79171,0.4472 -1.42042,1.13 -1.79652,1.9511 -0.35702,-0.841 -0.40375,-1.7792 -0.13203,-2.6508 0.27173,-0.8716 0.84463,-1.621 1.61859,-2.1174 0.00997,-2.705 1.02278,-5.3125 2.84658,-7.3289 l 0.0285,-0.0251 c 0.053,-0.0458 0.1209,-0.0713 0.1913,-0.0719 0.0407,4e-4 0.0809,0.0091 0.118,0.0256 0.0376,0.0167 0.0712,0.041 0.0987,0.0714 1.8452,2.0192 2.8526,4.6517 2.8213,7.3727 0.7884,0.4825 1.373,1.2314 1.6452,2.1077 0.2722,0.8763 0.2136,1.8205 -0.1649,2.6573 -0.3741,-0.8224 -1.0034,-1.5058 -1.7966,-1.951 -0.0484,0.3295 -0.1377,0.6519 -0.2657,0.9599 -0.0442,0.1313 -0.1328,0.2157 -0.2214,0.2157 h -1.4352 c 0.0023,0.0157 0.0039,0.0315 0.0048,0.0474 l 6e-4,0.0036 v 0.0077 c 5e-4,0.0136 5e-4,0.0273 0,0.041 0.0197,9.5359 5.8113,11.7004 6.2995,11.8659 h 0.167 c 0.0426,-0.7511 0.1814,-1.7875 0.3167,-2.7979 0.0932,-0.6962 0.1848,-1.3802 0.2421,-1.9498 h 0.7825 c 0.2505,-3.5079 0.5081,-7.006 0.7657,-10.5042 l 2e-4,-0.0019 10e-5,-0.001 c 0.3295,-4.4746 0.659,-8.9493 0.9736,-13.4448 H 2.11998 C 2.06092,9.02024 2.06495,9.11685 2.06987,9.21467 Z M 12.2859,14.2834 h -0.0015 0.0031 z"
     fill="#8047f8"
     id="path88" />
</svg>
